<svg width="42" height="42" viewBox="0 0 42 42" fill="none" xmlns="http://www.w3.org/2000/svg">
<circle cx="21" cy="21" r="21" fill="#D1E2FD"/>
<path fill-rule="evenodd" clip-rule="evenodd" d="M26.1002 17.3166C27.0106 13.6422 25.6203 9.05651 18.828 9.38322C10.3376 9.79159 9.57293 21.2885 10.0446 23.7388C10.7643 27.4775 13.8224 33.7499 24.778 32.2388C31.8154 31.2681 34.3103 25.9178 32.1446 22.7943C31.1019 21.2904 29.6849 21.0097 28.4749 20.7699C26.8777 20.4535 25.6409 20.2085 26.1002 17.3166ZM19.0168 16.8443C19.6949 16.8443 20.2446 16.2946 20.2446 15.6165C20.2446 14.9385 19.6949 14.3888 19.0168 14.3888C18.3388 14.3888 17.7891 14.9385 17.7891 15.6165C17.7891 16.2946 18.3388 16.8443 19.0168 16.8443Z" fill="#D1E2FD"/>
<path fill-rule="evenodd" clip-rule="evenodd" d="M24.6179 17.0158L24.6334 16.9531C25.0222 15.3838 24.8685 13.8056 24.1099 12.7093C23.4075 11.6942 21.9413 10.7463 18.9006 10.8926C15.5196 11.0552 13.5839 13.3652 12.493 16.3188C11.951 17.7866 11.6567 19.3341 11.5282 20.6647C11.3969 22.0242 11.4491 23.0409 11.5285 23.4531C11.8486 25.1159 12.674 27.2471 14.5382 28.7949C16.3617 30.3089 19.408 31.454 24.5715 30.7418C27.7445 30.3042 29.705 28.9111 30.6551 27.4857C31.6143 26.0467 31.5652 24.6107 30.9028 23.6553C30.2377 22.696 29.3977 22.4932 28.1812 22.2522C28.1673 22.2495 28.1533 22.2467 28.1392 22.2439C27.7705 22.171 27.3099 22.0798 26.8817 21.9351C26.4218 21.7797 25.8881 21.5286 25.4352 21.0648C24.4676 20.0739 24.3568 18.6595 24.6078 17.0795L24.6179 17.0158ZM21.7557 15.6165C21.7557 17.1292 20.5295 18.3554 19.0168 18.3554C17.5042 18.3554 16.278 17.1292 16.278 15.6165C16.278 14.1039 17.5042 12.8777 19.0168 12.8777C20.5295 12.8777 21.7557 14.1039 21.7557 15.6165ZM18.828 9.38322C25.6203 9.05651 27.0106 13.6422 26.1002 17.3166C25.6409 20.2085 26.8777 20.4535 28.4749 20.7699C29.6849 21.0097 31.1019 21.2904 32.1446 22.7943C34.3103 25.9178 31.8154 31.2681 24.778 32.2388C13.8224 33.7499 10.7643 27.4775 10.0446 23.7388C9.57293 21.2885 10.3376 9.79159 18.828 9.38322ZM20.2446 15.6165C20.2446 16.2946 19.6949 16.8443 19.0168 16.8443C18.3388 16.8443 17.7891 16.2946 17.7891 15.6165C17.7891 14.9385 18.3388 14.3888 19.0168 14.3888C19.6949 14.3888 20.2446 14.9385 20.2446 15.6165Z" fill="#006EEE"/>
<path d="M15.9004 24.1164C15.9004 24.7945 15.3507 25.3442 14.6726 25.3442C13.9945 25.3442 13.4448 24.7945 13.4448 24.1164C13.4448 23.4384 13.9945 22.8887 14.6726 22.8887C15.3507 22.8887 15.9004 23.4384 15.9004 24.1164Z" fill="#006EEE"/>
<path d="M15.9004 24.1164C15.9004 24.7945 15.3507 25.3442 14.6726 25.3442C13.9945 25.3442 13.4448 24.7945 13.4448 24.1164C13.4448 23.4384 13.9945 22.8887 14.6726 22.8887C15.3507 22.8887 15.9004 23.4384 15.9004 24.1164Z" fill="#006EEE"/>
<path d="M19.8667 27.3276C19.8667 28.0057 19.317 28.5554 18.6389 28.5554C17.9608 28.5554 17.4111 28.0057 17.4111 27.3276C17.4111 26.6495 17.9608 26.0999 18.6389 26.0999C19.317 26.0999 19.8667 26.6495 19.8667 27.3276Z" fill="#006EEE"/>
<path d="M19.8667 27.3276C19.8667 28.0057 19.317 28.5554 18.6389 28.5554C17.9608 28.5554 17.4111 28.0057 17.4111 27.3276C17.4111 26.6495 17.9608 26.0999 18.6389 26.0999C19.317 26.0999 19.8667 26.6495 19.8667 27.3276Z" fill="#006EEE"/>
<path d="M25.1558 27.7053C25.1558 28.3834 24.6061 28.9331 23.928 28.9331C23.2499 28.9331 22.7002 28.3834 22.7002 27.7053C22.7002 27.0272 23.2499 26.4775 23.928 26.4775C24.6061 26.4775 25.1558 27.0272 25.1558 27.7053Z" fill="#006EEE"/>
<path d="M25.1558 27.7053C25.1558 28.3834 24.6061 28.9331 23.928 28.9331C23.2499 28.9331 22.7002 28.3834 22.7002 27.7053C22.7002 27.0272 23.2499 26.4775 23.928 26.4775C24.6061 26.4775 25.1558 27.0272 25.1558 27.7053Z" fill="#006EEE"/>
<path d="M29.3115 25.2498C29.3115 25.9278 28.7618 26.4775 28.0837 26.4775C27.4057 26.4775 26.856 25.9278 26.856 25.2498C26.856 24.5717 27.4057 24.022 28.0837 24.022C28.7618 24.022 29.3115 24.5717 29.3115 25.2498Z" fill="#006EEE"/>
<path d="M29.3115 25.2498C29.3115 25.9278 28.7618 26.4775 28.0837 26.4775C27.4057 26.4775 26.856 25.9278 26.856 25.2498C26.856 24.5717 27.4057 24.022 28.0837 24.022C28.7618 24.022 29.3115 24.5717 29.3115 25.2498Z" fill="#006EEE"/>
</svg>
