<svg width="42" height="42" viewBox="0 0 42 42" fill="none" xmlns="http://www.w3.org/2000/svg">
<circle cx="21" cy="21" r="21" fill="#D1E2FD"/>
<path d="M10.6113 11.9333L12.9517 13.1681C13.2234 13.3114 13.526 13.3863 13.8331 13.3863H29.9207C30.1424 13.3863 30.3623 13.4254 30.5704 13.5016L31.578 13.8707V29.8778C31.578 30.3994 31.1552 30.8222 30.6336 30.8222H16.278C13.1484 30.8222 10.6113 28.2852 10.6113 25.1556V11.9333Z" fill="#D1E2FD"/>
<path fill-rule="evenodd" clip-rule="evenodd" d="M31.578 13.8707L30.5704 13.5016C30.3623 13.4254 30.1424 13.3863 29.9207 13.3863H13.8331C13.526 13.3863 13.2234 13.3114 12.9517 13.1681L10.6113 11.9333V25.1556C10.6113 28.2852 13.1484 30.8222 16.278 30.8222H30.6336C31.1552 30.8222 31.578 30.3994 31.578 29.8778V13.8707ZM30.0669 29.3111V14.9264L30.0506 14.9205C30.009 14.9053 29.965 14.8975 29.9207 14.8975H13.8331C13.2802 14.8975 12.7357 14.7626 12.2466 14.5046L12.1224 14.4391V25.1556C12.1224 27.4506 13.9829 29.3111 16.278 29.3111H30.0669Z" fill="#006EEE"/>
<path fill-rule="evenodd" clip-rule="evenodd" d="M30.9405 13.0936C30.1598 12.4609 30.1513 11.3984 30.9219 10.7566L31.2419 10.49C31.85 9.98347 31.4314 9.1001 30.5832 9.1001H13.9184C12.092 9.1001 10.6113 10.3686 10.6113 11.9334C10.6113 13.4982 12.092 14.7668 13.9184 14.7668H30.6312C31.4857 14.7668 31.9013 13.8722 31.2805 13.3691L30.9405 13.0936ZM29.1454 10.6112H13.9184C12.6989 10.6112 12.1224 11.4139 12.1224 11.9334C12.1224 12.4529 12.6989 13.2557 13.9184 13.2557H29.162C28.7368 12.4233 28.7297 11.4492 29.1454 10.6112Z" fill="#006EEE"/>
<path fill-rule="evenodd" clip-rule="evenodd" d="M14.5781 18.3558C14.5781 17.9385 14.9164 17.6002 15.3337 17.6002H27.0448C27.4621 17.6002 27.8003 17.9385 27.8003 18.3558C27.8003 18.7731 27.4621 19.1113 27.0448 19.1113H15.3337C14.9164 19.1113 14.5781 18.7731 14.5781 18.3558Z" fill="#006EEE"/>
</svg>
