<svg width="42" height="42" viewBox="0 0 42 42" fill="none" xmlns="http://www.w3.org/2000/svg">
<circle cx="21" cy="21" r="21" fill="#D1E2FD"/>
<path fill-rule="evenodd" clip-rule="evenodd" d="M23.8464 11.3316C23.1989 10.9595 22.4014 10.9635 21.7577 11.3422L16.246 14.5843L22.799 18.5161L29.5062 14.5843L23.8464 11.3316ZM30.2557 15.8966L23.5501 19.8274V27.0741L29.1975 23.8933C29.8512 23.5252 30.2557 22.8332 30.2557 22.0829V15.8966ZM22.039 27.0591V19.8223L15.5223 15.9123V22.1019C15.5223 22.8447 15.9189 23.531 16.5624 23.902L22.039 27.0591ZM20.9915 10.0397C22.1034 9.3856 23.4809 9.37864 24.5994 10.0215L31.3877 13.9228C31.6222 14.0576 31.7668 14.3074 31.7668 14.5779V22.0829C31.7668 23.3788 31.0682 24.574 29.9391 25.21L23.1653 29.0251C22.9328 29.156 22.6484 29.1546 22.4172 29.0213L15.8077 25.2112C14.6962 24.5704 14.0112 23.3849 14.0112 22.1019V14.5779C14.0112 14.3101 14.1529 14.0624 14.3837 13.9266L20.9915 10.0397Z" fill="#006EEE"/>
<path d="M13.8212 20.1258L9.28906 29.5515C14.0264 32.5371 18.4407 30.7955 20.0557 29.5515L15.5236 20.1258C15.1805 19.4122 14.1643 19.4122 13.8212 20.1258Z" fill="#D1E2FD"/>
<path fill-rule="evenodd" clip-rule="evenodd" d="M14.8424 20.4534C14.7738 20.3106 14.5706 20.3106 14.502 20.4534L10.2706 29.2535C14.0138 31.307 17.4365 30.2858 19.0925 29.2923L14.8424 20.4534ZM13.1401 19.7985C13.7577 18.5141 15.5867 18.5141 16.2043 19.7985L20.7365 29.2243C20.8912 29.5461 20.7995 29.9323 20.5166 30.1503C18.7191 31.5348 13.9578 33.3873 8.88601 30.1909C8.56116 29.9862 8.44153 29.5703 8.60793 29.2243L13.1401 19.7985Z" fill="#006EEE"/>
</svg>
