<svg width="117" height="16" viewBox="0 0 117 16" fill="none" xmlns="http://www.w3.org/2000/svg">
<path d="M7.04894 2.92705C7.3483 2.00574 8.6517 2.00574 8.95106 2.92705L9.5716 4.83688C9.70547 5.2489 10.0894 5.52786 10.5227 5.52786H12.5308C13.4995 5.52786 13.9023 6.76748 13.1186 7.33688L11.494 8.51722C11.1435 8.77187 10.9968 9.22323 11.1307 9.63525L11.7512 11.5451C12.0506 12.4664 10.9961 13.2325 10.2124 12.6631L8.58778 11.4828C8.2373 11.2281 7.7627 11.2281 7.41221 11.4828L5.78761 12.6631C5.0039 13.2325 3.94942 12.4664 4.24878 11.5451L4.86932 9.63526C5.00319 9.22323 4.85653 8.77186 4.50604 8.51722L2.88144 7.33688C2.09773 6.76748 2.50051 5.52786 3.46923 5.52786H5.47735C5.91057 5.52786 6.29453 5.2489 6.4284 4.83688L7.04894 2.92705Z" fill="#FFBC58"/>
<path d="M23.0489 2.92705C23.3483 2.00574 24.6517 2.00574 24.9511 2.92705L25.5716 4.83688C25.7055 5.2489 26.0894 5.52786 26.5227 5.52786H28.5308C29.4995 5.52786 29.9023 6.76748 29.1186 7.33688L27.494 8.51722C27.1435 8.77187 26.9968 9.22323 27.1307 9.63525L27.7512 11.5451C28.0506 12.4664 26.9961 13.2325 26.2124 12.6631L24.5878 11.4828C24.2373 11.2281 23.7627 11.2281 23.4122 11.4828L21.7876 12.6631C21.0039 13.2325 19.9494 12.4664 20.2488 11.5451L20.8693 9.63526C21.0032 9.22323 20.8565 8.77186 20.506 8.51722L18.8814 7.33688C18.0977 6.76748 18.5005 5.52786 19.4692 5.52786H21.4773C21.9106 5.52786 22.2945 5.2489 22.4284 4.83688L23.0489 2.92705Z" fill="#FFBC58"/>
<path d="M39.0489 2.92705C39.3483 2.00574 40.6517 2.00574 40.9511 2.92705L41.5716 4.83688C41.7055 5.2489 42.0894 5.52786 42.5227 5.52786H44.5308C45.4995 5.52786 45.9023 6.76748 45.1186 7.33688L43.494 8.51722C43.1435 8.77187 42.9968 9.22323 43.1307 9.63525L43.7512 11.5451C44.0506 12.4664 42.9961 13.2325 42.2124 12.6631L40.5878 11.4828C40.2373 11.2281 39.7627 11.2281 39.4122 11.4828L37.7876 12.6631C37.0039 13.2325 35.9494 12.4664 36.2488 11.5451L36.8693 9.63526C37.0032 9.22323 36.8565 8.77186 36.506 8.51722L34.8814 7.33688C34.0977 6.76748 34.5005 5.52786 35.4692 5.52786H37.4773C37.9106 5.52786 38.2945 5.2489 38.4284 4.83688L39.0489 2.92705Z" fill="#FFBC58"/>
<path d="M55.0489 2.92705C55.3483 2.00574 56.6517 2.00574 56.9511 2.92705L57.5716 4.83688C57.7055 5.2489 58.0894 5.52786 58.5227 5.52786H60.5308C61.4995 5.52786 61.9023 6.76748 61.1186 7.33688L59.494 8.51722C59.1435 8.77187 58.9968 9.22323 59.1307 9.63525L59.7512 11.5451C60.0506 12.4664 58.9961 13.2325 58.2124 12.6631L56.5878 11.4828C56.2373 11.2281 55.7627 11.2281 55.4122 11.4828L53.7876 12.6631C53.0039 13.2325 51.9494 12.4664 52.2488 11.5451L52.8693 9.63526C53.0032 9.22323 52.8565 8.77186 52.506 8.51722L50.8814 7.33688C50.0977 6.76748 50.5005 5.52786 51.4692 5.52786H53.4773C53.9106 5.52786 54.2945 5.2489 54.4284 4.83688L55.0489 2.92705Z" fill="#FFBC58"/>
<path d="M71.0489 2.92705C71.3483 2.00574 72.6517 2.00574 72.9511 2.92705L73.5716 4.83688C73.7055 5.2489 74.0894 5.52786 74.5227 5.52786H76.5308C77.4995 5.52786 77.9023 6.76748 77.1186 7.33688L75.494 8.51722C75.1435 8.77187 74.9968 9.22323 75.1307 9.63525L75.7512 11.5451C76.0506 12.4664 74.9961 13.2325 74.2124 12.6631L72.5878 11.4828C72.2373 11.2281 71.7627 11.2281 71.4122 11.4828L69.7876 12.6631C69.0039 13.2325 67.9494 12.4664 68.2488 11.5451L68.8693 9.63526C69.0032 9.22323 68.8565 8.77186 68.506 8.51722L66.8814 7.33688C66.0977 6.76748 66.5005 5.52786 67.4692 5.52786H69.4773C69.9106 5.52786 70.2945 5.2489 70.4284 4.83688L71.0489 2.92705Z" fill="#FFBC58"/>
<path d="M87.27 13.86C86.6167 13.2333 86.1133 12.4367 85.76 11.47C85.4133 10.5033 85.24 9.46667 85.24 8.36C85.24 7.22667 85.4267 6.15667 85.8 5.15C86.18 4.14333 86.7367 3.31333 87.47 2.66H88.65V2.77C87.8833 3.47667 87.3067 4.32333 86.92 5.31C86.5333 6.29667 86.34 7.31333 86.34 8.36C86.34 9.36667 86.52 10.34 86.88 11.28C87.24 12.22 87.7633 13.0433 88.45 13.75V13.86H87.27ZM89.3819 10.48V9.62L92.7419 4.8H94.1219V9.49H95.0519V10.48H94.1219V12H93.0019V10.48H89.3819ZM93.0519 5.96L90.6919 9.49H93.0519V5.96ZM95.9965 8.26C95.9965 7.10667 96.1898 6.20667 96.5765 5.56C96.9698 4.90667 97.6432 4.58 98.5965 4.58C99.5498 4.58 100.22 4.90667 100.606 5.56C101 6.20667 101.196 7.10667 101.196 8.26C101.196 9.42667 101 10.34 100.606 11C100.22 11.6533 99.5498 11.98 98.5965 11.98C97.6432 11.98 96.9698 11.6533 96.5765 11C96.1898 10.34 95.9965 9.42667 95.9965 8.26ZM100.076 8.26C100.076 7.72 100.04 7.26333 99.9665 6.89C99.8998 6.51667 99.7598 6.21333 99.5465 5.98C99.3332 5.74 99.0165 5.62 98.5965 5.62C98.1765 5.62 97.8598 5.74 97.6465 5.98C97.4332 6.21333 97.2898 6.51667 97.2165 6.89C97.1498 7.26333 97.1165 7.72 97.1165 8.26C97.1165 8.82 97.1498 9.29 97.2165 9.67C97.2832 10.05 97.4232 10.3567 97.6365 10.59C97.8565 10.8233 98.1765 10.94 98.5965 10.94C99.0165 10.94 99.3332 10.8233 99.5465 10.59C99.7665 10.3567 99.9098 10.05 99.9765 9.67C100.043 9.29 100.076 8.82 100.076 8.26ZM102.253 5.75V4.71H104.333V12H103.183V5.75H102.253ZM109.819 6.4C109.745 6.09333 109.612 5.86333 109.419 5.71C109.225 5.55667 108.955 5.48 108.609 5.48C108.082 5.48 107.689 5.68333 107.429 6.09C107.169 6.49 107.032 7.15667 107.019 8.09C107.192 7.79667 107.445 7.57 107.779 7.41C108.112 7.25 108.472 7.17 108.859 7.17C109.299 7.17 109.685 7.26667 110.019 7.46C110.359 7.64667 110.622 7.92 110.809 8.28C111.002 8.64 111.099 9.07 111.099 9.57C111.099 10.0367 111.005 10.4533 110.819 10.82C110.639 11.1867 110.369 11.4767 110.009 11.69C109.649 11.8967 109.215 12 108.709 12C108.022 12 107.482 11.85 107.089 11.55C106.702 11.2433 106.429 10.8133 106.269 10.26C106.115 9.70667 106.039 9.01667 106.039 8.19C106.039 5.75 106.899 4.53 108.619 4.53C109.285 4.53 109.809 4.71 110.189 5.07C110.575 5.43 110.802 5.87333 110.869 6.4H109.819ZM108.609 8.13C108.202 8.13 107.855 8.25333 107.569 8.5C107.289 8.74 107.149 9.09 107.149 9.55C107.149 10.01 107.279 10.3767 107.539 10.65C107.805 10.9167 108.175 11.05 108.649 11.05C109.069 11.05 109.399 10.92 109.639 10.66C109.885 10.4 110.009 10.0533 110.009 9.62C110.009 9.16667 109.889 8.80667 109.649 8.54C109.415 8.26667 109.069 8.13 108.609 8.13ZM112.185 13.86V13.75C112.872 13.0433 113.395 12.22 113.755 11.28C114.115 10.34 114.295 9.36667 114.295 8.36C114.295 7.31333 114.102 6.29667 113.715 5.31C113.328 4.32333 112.752 3.47667 111.985 2.77V2.66H113.165C113.898 3.31333 114.452 4.14333 114.825 5.15C115.205 6.15667 115.395 7.22667 115.395 8.36C115.395 9.46667 115.218 10.5033 114.865 11.47C114.518 12.4367 114.018 13.2333 113.365 13.86H112.185Z" fill="#A2ADB1"/>
</svg>
